<svg xmlns="http://www.w3.org/2000/svg" viewBox="0 0 400 200">
  <defs>
    <linearGradient id="textGrad2" x1="0%" y1="0%" x2="0%" y2="100%">
      <stop offset="0%" style="stop-color:#ffffff"/>
      <stop offset="100%" style="stop-color:#888888"/>
    </linearGradient>
    <filter id="glow2">
      <feGaussianBlur stdDeviation="3" result="coloredBlur"/>
      <feMerge>
        <feMergeNode in="coloredBlur"/>
        <feMergeNode in="SourceGraphic"/>
      </feMerge>
    </filter>
  </defs>
  
  <!-- Background -->
  <rect width="400" height="200" fill="#000000"/>
  
  <!-- Matrix rain effect - vertical streams -->
  <g font-family="'Courier New', monospace" font-size="10" opacity="0.15" fill="#00ff00">
    <text x="20" y="15">1</text><text x="20" y="30">0</text><text x="20" y="45">1</text><text x="20" y="60">1</text><text x="20" y="75">0</text><text x="20" y="90">0</text><text x="20" y="105">1</text><text x="20" y="120">0</text><text x="20" y="135">1</text><text x="20" y="150">1</text><text x="20" y="165">0</text><text x="20" y="180">1</text><text x="20" y="195">0</text>
    <text x="50" y="25">0</text><text x="50" y="40">1</text><text x="50" y="55">0</text><text x="50" y="70">1</text><text x="50" y="85">1</text><text x="50" y="100">0</text><text x="50" y="115">1</text><text x="50" y="130">0</text><text x="50" y="145">0</text><text x="50" y="160">1</text><text x="50" y="175">1</text><text x="50" y="190">0</text>
    <text x="80" y="10">1</text><text x="80" y="25">1</text><text x="80" y="40">0</text><text x="80" y="55">0</text><text x="80" y="70">1</text><text x="80" y="85">0</text><text x="80" y="100">1</text><text x="80" y="115">1</text><text x="80" y="130">0</text><text x="80" y="145">1</text><text x="80" y="160">0</text><text x="80" y="175">0</text><text x="80" y="190">1</text>
    <text x="320" y="20">0</text><text x="320" y="35">1</text><text x="320" y="50">1</text><text x="320" y="65">0</text><text x="320" y="80">1</text><text x="320" y="95">0</text><text x="320" y="110">0</text><text x="320" y="125">1</text><text x="320" y="140">1</text><text x="320" y="155">0</text><text x="320" y="170">1</text><text x="320" y="185">0</text>
    <text x="350" y="15">1</text><text x="350" y="30">0</text><text x="350" y="45">0</text><text x="350" y="60">1</text><text x="350" y="75">1</text><text x="350" y="90">0</text><text x="350" y="105">1</text><text x="350" y="120">0</text><text x="350" y="135">1</text><text x="350" y="150">0</text><text x="350" y="165">1</text><text x="350" y="180">1</text><text x="350" y="195">0</text>
    <text x="380" y="5">0</text><text x="380" y="20">0</text><text x="380" y="35">1</text><text x="380" y="50">1</text><text x="380" y="65">0</text><text x="380" y="80">1</text><text x="380" y="95">0</text><text x="380" y="110">1</text><text x="380" y="125">0</text><text x="380" y="140">1</text><text x="380" y="155">0</text><text x="380" y="170">0</text><text x="380" y="185">1</text>
  </g>
  
  <!-- Main text with glow -->
  <text x="200" y="100" text-anchor="middle" font-family="Arial Black, sans-serif" font-size="56" font-weight="900" fill="url(#textGrad2)" filter="url(#glow2)">SnS</text>
  
  <!-- NetLabs with accent -->
  <text x="200" y="145" text-anchor="middle" font-family="Arial, sans-serif" font-size="28" font-weight="bold" fill="#444444">Net<tspan fill="#00ff00">Labs</tspan><tspan fill="#00ff00" font-size="32">!</tspan></text>
  
  <!-- Underline accent -->
  <line x1="120" y1="155" x2="280" y2="155" stroke="#00ff00" stroke-width="2" opacity="0.5"/>
</svg>
